<svg width="89" height="90" viewBox="0 0 89 90" fill="none" xmlns="http://www.w3.org/2000/svg">
<rect y="0.5" width="89" height="89" rx="11" fill="#F4F4F4"/>
<path d="M68.7203 55.6273C67.1551 54.0504 63.3645 51.7492 61.5254 50.8218C59.1304 49.6155 58.9333 49.517 57.0508 50.9154C55.7951 51.8487 54.9603 52.6825 53.4908 52.3691C52.0212 52.0557 48.8279 50.2886 46.0317 47.5015C43.2356 44.7144 41.3659 41.4287 41.0515 39.9642C40.7371 38.4997 41.5847 37.6748 42.5092 36.4162C43.8122 34.6423 43.7136 34.3466 42.5999 31.9518C41.7316 30.0891 39.3632 26.3342 37.7803 24.7771C36.087 23.1046 36.087 23.4003 34.996 23.8536C34.1077 24.2273 33.2556 24.6816 32.4502 25.2107C30.8732 26.2583 29.998 27.1286 29.3859 28.4364C28.7739 29.7442 28.4989 32.8102 31.6597 38.5519C34.8205 44.2936 37.0381 47.2295 41.6281 51.8064C46.218 56.3832 49.7475 58.8441 54.9071 61.7376C61.2898 65.3121 63.7381 64.6154 65.0499 64.0043C66.3617 63.3933 67.236 62.526 68.2856 60.9492C68.8162 60.1452 69.2715 59.294 69.6458 58.4065C70.1001 57.3194 70.3958 57.3194 68.7203 55.6273Z" stroke="#7EB693" stroke-width="3" stroke-miterlimit="10"/>
</svg>
