<svg width="45" height="44" viewBox="0 0 45 44" fill="none" xmlns="http://www.w3.org/2000/svg">
<path d="M41.7203 33.6273C40.1551 32.0504 36.3645 29.7492 34.5254 28.8218C32.1304 27.6155 31.9333 27.517 30.0508 28.9154C28.7951 29.8487 27.9603 30.6825 26.4908 30.3691C25.0212 30.0557 21.8279 28.2886 19.0317 25.5015C16.2356 22.7144 14.3659 19.4287 14.0515 17.9642C13.7371 16.4997 14.5847 15.6748 15.5092 14.4162C16.8122 12.6423 16.7136 12.3466 15.5999 9.95178C14.7316 8.08912 12.3632 4.33423 10.7803 2.77709C9.08703 1.10463 9.08704 1.40029 7.99598 1.85364C7.10772 2.22734 6.25556 2.6816 5.45017 3.21072C3.87321 4.25834 2.99799 5.12857 2.38593 6.43638C1.77388 7.74418 1.49889 10.8102 4.65972 16.5519C7.82054 22.2936 10.0381 25.2295 14.6281 29.8064C19.218 34.3832 22.7475 36.8441 27.9071 39.7376C34.2898 43.3121 36.7381 42.6154 38.0499 42.0043C39.3617 41.3933 40.236 40.526 41.2856 38.9492C41.8162 38.1452 42.2715 37.294 42.6458 36.4065C43.1001 35.3194 43.3958 35.3194 41.7203 33.6273Z" stroke="#7EB693" stroke-width="3" stroke-miterlimit="10"/>
</svg>
